<svg width="22" height="28" viewBox="0 0 22 28" fill="none" xmlns="http://www.w3.org/2000/svg">
<path fill-rule="evenodd" clip-rule="evenodd" d="M14.1667 0.354167C14.1667 0.158567 14.0081 0 13.8125 0H3.89583C1.74423 0 0 1.74423 0 3.89583V23.7292C0 25.8808 1.74423 27.625 3.89583 27.625H18.0625C20.2141 27.625 21.9583 25.8808 21.9583 23.7292V9.77083C21.9583 9.57524 21.7998 9.41667 21.6042 9.41667H15.2292C14.6424 9.41667 14.1667 8.94097 14.1667 8.35417V0.354167ZM13.8571 15.4619C14.3154 15.0955 14.9839 15.1697 15.3506 15.628C15.7171 16.0861 15.6428 16.7548 15.1845 17.1214L11.6515 19.9478C11.4692 20.097 11.2364 20.1867 10.9827 20.1875H10.9793H10.9702C10.7209 20.1854 10.492 20.0974 10.3116 19.9516L6.7738 17.1214C6.31558 16.7548 6.24129 16.0861 6.60787 15.628C6.97443 15.1697 7.64306 15.0955 8.10128 15.4619L9.91681 16.9145V12.0417C9.91681 11.4549 10.3924 10.9792 10.9793 10.9792C11.5661 10.9792 12.0418 11.4549 12.0418 12.0417V16.9143L13.8571 15.4619Z" fill="white"/>
</svg>
