<svg width="44" height="44" viewBox="0 0 44 44" fill="none" xmlns="http://www.w3.org/2000/svg">
<circle cx="22" cy="22" r="21" stroke="white" stroke-width="2"/>
<path fill-rule="evenodd" clip-rule="evenodd" d="M15.6283 20.5512C14.2287 19.6536 13.3899 19.1137 13.1115 18.9319C12.6042 18.6138 12.1253 18.1762 11.6752 17.6194C11.2251 17.0626 11 16.5455 11 16.0682C11 15.4773 11.1698 14.9848 11.5095 14.5908C11.8491 14.1969 12.334 14 12.9642 14H31.0357C31.5674 14 32.0279 14.178 32.4167 14.5341C32.8055 14.8901 33 15.3182 33 15.8182C33 16.4167 32.7996 16.9887 32.3983 17.5339C31.9972 18.0794 31.4981 18.5454 30.9007 18.9316C27.8234 20.909 25.908 22.14 25.1552 22.6249C25.0734 22.678 24.8993 22.7933 24.6334 22.9715C24.3674 23.1496 24.1465 23.2937 23.9705 23.4034C23.7945 23.5132 23.5817 23.6362 23.3322 23.7726C23.0827 23.9087 22.8472 24.0113 22.6262 24.0792C22.4052 24.1475 22.2006 24.1814 22.0124 24.1814H22H21.9876C21.7994 24.1814 21.5948 24.1475 21.3738 24.0792C21.1528 24.0113 20.9175 23.9089 20.6678 23.7726C20.4181 23.6363 20.2053 23.5132 20.0293 23.4034C19.8535 23.2937 19.6324 23.1496 19.3665 22.9715C19.1005 22.7935 18.9266 22.678 18.8448 22.6249C18.1 22.1402 17.0278 21.4489 15.6283 20.5512ZM25.6586 24.0682C27.0498 23.1363 29.0879 21.8294 31.7722 20.1477C32.2389 19.8523 32.648 19.5226 33 19.1591V28.1816C33 28.6818 32.8079 29.1096 32.423 29.4658C32.0383 29.822 31.5759 30 31.0358 30H12.9643C12.4241 30 11.9617 29.822 11.577 29.4658C11.1923 29.1097 11 28.6818 11 28.1816V19.1591C11.3601 19.5303 11.7735 19.86 12.24 20.1477C15.2028 22.0113 17.2365 23.3182 18.3415 24.0682C18.808 24.3863 19.1866 24.6346 19.4771 24.8124C19.7676 24.9905 20.1544 25.1723 20.6372 25.3579C21.12 25.5436 21.5702 25.6363 21.9876 25.6363H22H22.0125C22.4299 25.6363 22.88 25.5436 23.3628 25.3579C23.8457 25.1723 24.2324 24.9905 24.5229 24.8124C24.8136 24.6346 25.1921 24.3863 25.6586 24.0682Z" fill="white"/>
</svg>
